<svg width="34" height="19" viewBox="0 0 34 19" fill="none" xmlns="http://www.w3.org/2000/svg">
<path d="M0.0758625 8.2877C0.126436 8.07276 0.177009 7.9653 0.227583 7.9653H24.0099V1.25169C24.0099 0.897676 24.1553 0.600558 24.4461 0.360335C24.7369 0.120111 25.0593 0 25.4134 0C25.7927 0 26.1214 0.139076 26.3996 0.41723L33.6443 7.66186C33.796 7.81358 33.8718 8.36988 33.8718 9.33077C33.8718 10.2917 33.796 10.848 33.6443 10.9997L25.8685 18.8512C25.818 18.9018 25.6915 18.8638 25.4892 18.7374C25.2869 18.611 25.0214 18.3834 24.6927 18.0547C24.0858 17.3972 23.8456 17.0053 23.972 16.8788L31.5581 9.33077L26.6651 4.28609V10.6963H0.227583C0.177009 10.6963 0.126436 10.5888 0.0758625 10.3738C0.0252887 10.1589 0 9.81122 0 9.33077C0 8.85033 0.0252887 8.50264 0.0758625 8.2877Z" fill="#FF0066"/>
</svg>
