<svg width="19" height="23" viewBox="0 0 19 23" fill="none" xmlns="http://www.w3.org/2000/svg">
<path d="M2.19168 22.8878C1.9292 22.7702 1.5847 22.5267 1.15818 22.1571C0.698843 21.754 0.37895 21.4349 0.198498 21.1998C0.0180452 20.9646 -0.0393714 20.8302 0.0262476 20.7967L7.99896 10.6182L2.38853 3.2615C2.35572 3.19432 2.42955 3.05155 2.61 2.8332C2.79045 2.61485 3.11034 2.32092 3.56968 1.9514C4.02901 1.58189 4.39812 1.33835 4.677 1.22077C4.95588 1.1032 5.11172 1.07801 5.14453 1.14519L10.2136 7.79645L16.3162 0.0366461C16.3818 -0.0305384 16.5458 -0.00534423 16.8083 0.112229C17.0708 0.229801 17.4153 0.473345 17.8418 0.84286C18.3012 1.24597 18.621 1.56509 18.8015 1.80024C18.982 2.03538 19.0394 2.16975 18.9738 2.20335L12.3298 10.6182L18.2848 18.4284C18.3176 18.4956 18.2519 18.6468 18.0879 18.8819C17.9238 19.117 17.6122 19.4194 17.1528 19.7889C16.6935 20.1248 16.3244 20.3516 16.0455 20.4691C15.7666 20.5867 15.6108 20.6287 15.578 20.5951L10.1152 13.44L2.63461 22.9634C2.6018 23.0305 2.45415 23.0053 2.19168 22.8878Z" fill="#1F1F1F"/>
</svg>
