<svg width="9" height="12" viewBox="0 0 9 12" fill="none" xmlns="http://www.w3.org/2000/svg">
<path d="M7.78618 11.6609C7.67434 11.6348 7.61842 11.6087 7.61842 11.5826V7.76739C7.61842 7.28478 7.49671 6.90978 7.25329 6.64239C7.00987 6.375 6.57895 6.10435 5.96053 5.83043L4.67763 5.24348L4.5 5.16522L4.32237 5.24348L3.03947 5.83043C2.42105 6.10435 1.99013 6.375 1.74671 6.64239C1.50329 6.90978 1.38158 7.28478 1.38158 7.76739V10.2913H6.51316C6.53947 10.2913 6.56579 10.3467 6.59211 10.4576C6.61842 10.5685 6.63158 10.7348 6.63158 10.9565C6.63158 11.1783 6.61842 11.3446 6.59211 11.4554C6.56579 11.5663 6.53947 11.6217 6.51316 11.6217H0V7.72826C0 7.12826 0.105263 6.64239 0.315789 6.27065C0.526316 5.89891 0.799342 5.6087 1.13487 5.4C1.47039 5.1913 1.92105 4.96956 2.48684 4.73478L3.19737 4.42174C2.38158 3.83478 1.97368 3.16304 1.97368 2.40652C1.97368 1.96304 2.08882 1.55543 2.31908 1.1837C2.54934 0.811957 2.85855 0.521739 3.24671 0.313043C3.63487 0.104348 4.05263 0 4.5 0C4.94737 0 5.36513 0.104348 5.75329 0.313043C6.14145 0.521739 6.45066 0.811957 6.68092 1.1837C6.91118 1.55543 7.02632 1.96304 7.02632 2.40652C7.02632 3.16304 6.61842 3.83478 5.80263 4.42174L6.51316 4.73478C7.07895 4.96956 7.5296 5.1913 7.86513 5.4C8.20066 5.6087 8.47368 5.89891 8.68421 6.27065C8.89474 6.64239 9 7.12826 9 7.72826V11.5826C9 11.6087 8.94408 11.6348 8.83224 11.6609C8.7204 11.687 8.54605 11.7 8.30921 11.7C8.07237 11.7 7.89803 11.687 7.78618 11.6609ZM5.36842 3.19891C5.55263 2.97065 5.64474 2.70652 5.64474 2.40652C5.64474 2.09348 5.53289 1.82935 5.30921 1.61413C5.08553 1.39891 4.81579 1.2913 4.5 1.2913C4.18421 1.2913 3.91447 1.39891 3.69079 1.61413C3.46711 1.82935 3.35526 2.09348 3.35526 2.40652C3.35526 2.70652 3.44737 2.97065 3.63158 3.19891C3.81579 3.42717 4.10526 3.64565 4.5 3.85435C4.89474 3.64565 5.18421 3.42717 5.36842 3.19891Z" fill="#8012B7"/>
</svg>
