<svg width="20" height="20" viewBox="0 0 20 20" fill="none" xmlns="http://www.w3.org/2000/svg">
<path d="M0 5.65724H3.21192L9.96689 12.2463L13.1788 7.92013H8.80795V0.199667C8.80795 0.155297 8.90177 0.110926 9.0894 0.0665557C9.27704 0.0221852 9.56954 0 9.96689 0C10.3642 0 10.6567 0.0221852 10.8444 0.0665557C11.032 0.110926 11.1258 0.155297 11.1258 0.199667V5.65724H15.3642C15.6733 5.65724 15.9327 5.7848 16.1424 6.03993C16.3521 6.29506 16.457 6.57793 16.457 6.88852C16.457 7.13256 16.3355 7.42096 16.0927 7.75374L11.4238 14.1098C11.2914 14.2429 10.8057 14.3095 9.96689 14.3095C9.12803 14.3095 8.64238 14.2429 8.50993 14.1098L2.31788 8.01997V17.7371H17.6821V5.75707C17.6821 5.7127 17.7759 5.66833 17.9636 5.62396C18.1512 5.57959 18.4437 5.5574 18.8411 5.5574C19.2384 5.5574 19.5309 5.57959 19.7185 5.62396C19.9062 5.66833 20 5.7127 20 5.75707V20H0V5.65724Z" fill="#8012B7"/>
</svg>
