<svg width="21" height="21" viewBox="0 0 21 21" fill="none" xmlns="http://www.w3.org/2000/svg">
<path d="M0 5.9401H3.37252L10.4652 12.8586L13.8377 8.31614H9.24834V0.209651C9.24834 0.163062 9.34685 0.116473 9.54387 0.0698835C9.74089 0.0232945 10.048 0 10.4652 0C10.8824 0 11.1896 0.0232945 11.3866 0.0698835C11.5836 0.116473 11.6821 0.163062 11.6821 0.209651V5.9401H16.1325C16.457 5.9401 16.7293 6.07404 16.9495 6.34193C17.1697 6.60982 17.2798 6.90682 17.2798 7.23294C17.2798 7.48918 17.1523 7.79201 16.8974 8.14143L11.995 14.8153C11.856 14.9551 11.346 15.025 10.4652 15.025C9.58444 15.025 9.0745 14.9551 8.93543 14.8153L2.43377 8.42097V18.624H18.5662V6.04493C18.5662 5.99834 18.6647 5.95175 18.8618 5.90516C19.0588 5.85857 19.3659 5.83527 19.7831 5.83527C20.2003 5.83527 20.5074 5.85857 20.7045 5.90516C20.9015 5.95175 21 5.99834 21 6.04493V21H0V5.9401Z" fill="#1F1F1F"/>
</svg>
