<svg width="22" height="17" viewBox="0 0 22 17" fill="none" xmlns="http://www.w3.org/2000/svg">
<path d="M0 6.03087C0 5.98029 0.107476 5.92972 0.322414 5.87914C0.537353 5.82857 0.872422 5.80329 1.32759 5.80329C1.78275 5.80329 2.11778 5.82857 2.33272 5.87914C2.54766 5.92972 2.65513 5.98029 2.65513 6.03087V13.7686H18.3583V2.57924H4.4758L10.5067 7.51013L15.2859 3.52749C15.4124 3.40105 15.7791 3.62863 16.386 4.21023C16.7147 4.51367 16.9359 4.76021 17.0497 4.94986C17.1635 5.13951 17.1951 5.25962 17.1445 5.3102L12.1377 9.63421C11.986 9.78593 11.4297 9.86179 10.4688 9.86179C9.55846 9.86179 9.02746 9.78593 8.87574 9.63421L0.6069 2.46545C0.202309 2.08615 0 1.68156 0 1.25169C0 0.897676 0.126458 0.600558 0.379327 0.360335C0.632196 0.120111 1.01149 0 1.51723 0H21.0135V16.3478H0V6.03087Z" fill="#1F1F1F"/>
</svg>
