<svg width="27" height="27" viewBox="0 0 27 27" fill="none" xmlns="http://www.w3.org/2000/svg">
<path d="M3.79833 25.9983C2.6085 25.3305 1.67797 24.4047 1.00678 23.2209C0.335599 22.0371 0 20.7319 0 19.3052V7.69477C0 6.26813 0.335599 4.9629 1.00678 3.77909C1.67797 2.59528 2.6085 1.66948 3.79833 1.00169C4.98816 0.333895 6.31526 0 7.77966 0H19.2203C20.6847 0 22.0119 0.333895 23.2017 1.00169C24.3915 1.66948 25.322 2.59528 25.9932 3.77909C26.6644 4.9629 27 6.26813 27 7.69477V19.3052C27 20.7319 26.6644 22.0371 25.9932 23.2209C25.322 24.4047 24.3915 25.3305 23.2017 25.9983C22.0119 26.6661 20.6847 27 19.2203 27H13.1797V15.9815H10.022C9.96102 15.9815 9.90001 15.8676 9.83899 15.64C9.77798 15.4123 9.74747 15.0405 9.74747 14.5245C9.74747 14.0084 9.77798 13.629 9.83899 13.3862C9.90001 13.1433 9.96102 13.0219 10.022 13.0219H13.1797V10.6998C13.1797 9.06071 13.6754 7.78584 14.667 6.87521C15.6585 5.96459 16.9475 5.50927 18.5339 5.50927H20.2729C20.3339 5.50927 20.3949 5.63069 20.4559 5.87352C20.5169 6.11636 20.5474 6.49578 20.5474 7.01181C20.5474 7.52783 20.5169 7.89966 20.4559 8.12732C20.3949 8.35497 20.3339 8.4688 20.2729 8.4688H18.6254C17.8627 8.4688 17.2754 8.67369 16.8636 9.08347C16.4517 9.49326 16.2458 10.0624 16.2458 10.7909V13.0219H20.2271C20.2881 13.0826 20.3186 13.204 20.3186 13.3862C20.3186 13.8111 20.2271 14.3499 20.0441 15.0025C19.861 15.6551 19.6932 15.9815 19.5407 15.9815H16.2458V23.9039H19.2203C20.4712 23.9039 21.5466 23.4562 22.4466 22.5607C23.3466 21.6653 23.7966 20.5801 23.7966 19.3052V7.69477C23.7966 6.4199 23.3466 5.33474 22.4466 4.43929C21.5466 3.54384 20.4712 3.09612 19.2203 3.09612H7.77966C6.52882 3.09612 5.45341 3.54384 4.55341 4.43929C3.65341 5.33474 3.2034 6.4199 3.2034 7.69477V19.3052C3.2034 20.5801 3.65341 21.6653 4.55341 22.5607C5.45341 23.4562 6.52882 23.9039 7.77966 23.9039H10.8458C10.9068 23.9039 10.9678 24.0329 11.0288 24.2909C11.0898 24.5489 11.1203 24.9359 11.1203 25.4519C11.1203 25.968 11.0898 26.355 11.0288 26.613C10.9678 26.871 10.9068 27 10.8458 27H7.77966C6.31526 27 4.98816 26.6661 3.79833 25.9983Z" fill="white"/>
</svg>
