<svg width="260" height="39" viewBox="0 0 260 39" fill="none" xmlns="http://www.w3.org/2000/svg">
<path d="M154.808 31.5392C154.781 31.4147 154.765 31.209 154.765 30.922C154.765 30.635 154.781 30.4293 154.808 30.3047C154.834 30.1802 154.867 30.1206 154.893 30.1206H155.345C155.86 30.1206 156.306 29.9149 156.687 29.5034C157.068 29.0919 157.256 28.5667 157.256 27.9332V15.0902C157.256 15.0035 157.541 14.9602 158.116 14.9602C158.69 14.9602 158.975 15.0035 158.975 15.0902V27.9982C158.975 29.0973 158.653 29.9853 158.008 30.6621C157.364 31.3389 156.521 31.6963 155.473 31.7233H154.893C154.861 31.7233 154.834 31.6638 154.808 31.5392Z" fill="white"/>
<path d="M162.272 28.4751C162.137 28.448 162.068 28.4156 162.068 28.3885L167.352 15.0475C167.395 14.9609 167.679 14.9176 168.211 14.9176C168.743 14.9176 169.027 14.9609 169.07 15.0475L174.355 28.3885C174.355 28.4156 174.285 28.448 174.14 28.4751C173.995 28.5022 173.775 28.5184 173.474 28.5184C173.173 28.5184 172.948 28.5022 172.797 28.4751C172.647 28.448 172.566 28.4156 172.55 28.3885L171.67 26.1145H164.667L163.786 28.3885C163.77 28.4156 163.695 28.448 163.55 28.4751C163.405 28.5022 163.19 28.5184 162.905 28.5184C162.615 28.5184 162.406 28.5022 162.272 28.4751ZM165.268 24.5551H171.09L168.19 16.9967L165.268 24.5551ZM165.687 12.8493C165.478 12.611 165.376 12.3403 165.376 12.0371C165.376 11.7502 165.488 11.5011 165.709 11.3008C165.929 11.1004 166.208 10.9976 166.536 10.9976C166.836 10.9976 167.089 11.0896 167.298 11.2683C167.508 11.447 167.61 11.6906 167.61 11.9938C167.61 12.3241 167.497 12.611 167.266 12.8493C167.035 13.0875 166.756 13.2066 166.428 13.2066C166.138 13.2066 165.891 13.0875 165.687 12.8493ZM169.178 12.8601C168.963 12.6273 168.856 12.3566 168.856 12.0371C168.856 11.7339 168.963 11.4849 169.178 11.2899C169.393 11.095 169.672 10.9976 170.015 10.9976C170.332 10.9976 170.585 11.0896 170.778 11.2791C170.971 11.4686 171.068 11.7068 171.068 11.9938C171.068 12.3241 170.961 12.611 170.746 12.8493C170.531 13.0875 170.257 13.2066 169.93 13.2066C169.64 13.2066 169.393 13.0929 169.178 12.8601Z" fill="white"/>
<path d="M176.922 28.4752C176.788 28.4481 176.718 28.4157 176.718 28.3886L179.081 15.0257C179.124 14.9391 179.404 14.8958 179.919 14.8958C180.435 14.8958 180.714 14.9391 180.757 15.0257L184.495 25.8979L188.211 15.0257C188.254 14.9391 188.533 14.8958 189.049 14.8958C189.548 14.8958 189.822 14.9391 189.865 15.0257L192.271 28.3886C192.271 28.4157 192.201 28.4481 192.056 28.4752C191.911 28.5023 191.691 28.5185 191.39 28.5185C190.848 28.5185 190.552 28.4752 190.509 28.3886L188.791 17.8196L185.268 28.1937C185.252 28.2207 185.182 28.2532 185.053 28.2803C184.924 28.3074 184.725 28.3236 184.452 28.3236C184.194 28.3236 184 28.3074 183.872 28.2803C183.743 28.2532 183.673 28.2207 183.657 28.1937L180.134 17.8196L178.415 28.3886C178.372 28.4752 178.088 28.5185 177.556 28.5185C177.266 28.5185 177.057 28.5023 176.922 28.4752Z" fill="white"/>
<path d="M196.223 15.0902C196.223 15.0035 196.507 14.9602 197.082 14.9602C197.657 14.9602 197.941 15.0035 197.941 15.0902V26.8503H203.419C203.446 26.8503 203.478 26.9099 203.505 27.0344C203.532 27.1589 203.548 27.3647 203.548 27.6516C203.548 27.9386 203.532 28.1444 203.505 28.2689C203.478 28.3934 203.446 28.453 203.419 28.453H196.223V15.0902Z" fill="white"/>
<path d="M207.027 28.388V15.0902C207.027 15.0035 207.312 14.9602 207.887 14.9602C208.461 14.9602 208.746 15.0035 208.746 15.0902V28.388C208.746 28.4746 208.461 28.5179 207.887 28.5179C207.312 28.5179 207.027 28.4746 207.027 28.388Z" fill="white"/>
<path d="M213.515 28.388V15.0902C213.515 15.0035 213.8 14.9602 214.374 14.9602C214.949 14.9602 215.233 15.0035 215.233 15.0902V20.2663L219.809 15.0902C219.895 15.0035 220.244 14.9602 220.861 14.9602C221.506 14.9602 221.85 15.0035 221.892 15.0902L216.673 20.7645L223.89 28.388C223.847 28.4746 223.477 28.5179 222.773 28.5179C222.059 28.5179 221.656 28.4746 221.57 28.388L215.233 21.5658V28.388C215.233 28.4746 214.949 28.5179 214.374 28.5179C213.8 28.5179 213.515 28.4746 213.515 28.388Z" fill="white"/>
<path d="M226.556 28.388V15.0902C226.556 15.0035 226.84 14.9602 227.415 14.9602C227.99 14.9602 228.274 15.0035 228.274 15.0902V20.223H235.427V15.0902C235.427 15.0035 235.712 14.9602 236.287 14.9602C236.861 14.9602 237.146 15.0035 237.146 15.0902V28.388C237.146 28.4746 236.861 28.5179 236.287 28.5179C235.712 28.5179 235.427 28.4746 235.427 28.388V21.8257H228.274V28.388C228.274 28.4746 227.99 28.5179 227.415 28.5179C226.84 28.5179 226.556 28.4746 226.556 28.388Z" fill="white"/>
<path d="M241.803 15.0261H248.785C248.811 15.0261 248.844 15.0857 248.87 15.2102C248.897 15.3347 248.913 15.5405 248.913 15.8274C248.913 16.1144 248.897 16.3202 248.87 16.4447C248.844 16.5692 248.811 16.6288 248.785 16.6288H243.522V20.2239H247.367C247.394 20.2239 247.426 20.2835 247.453 20.408C247.48 20.5325 247.496 20.7383 247.496 21.0252C247.496 21.3122 247.48 21.518 247.453 21.6425C247.426 21.767 247.394 21.8266 247.367 21.8266H243.522V26.8511H248.999C249.026 26.8511 249.058 26.9107 249.085 27.0352C249.112 27.1597 249.128 27.3655 249.128 27.6524C249.128 27.9394 249.112 28.1451 249.085 28.2697C249.058 28.3942 249.026 28.4538 248.999 28.4538H241.803V15.0261Z" fill="white"/>
<path d="M254.995 28.3888V16.6288H251.837C251.81 16.6288 251.778 16.5692 251.751 16.4447C251.724 16.3202 251.708 16.1144 251.708 15.8274C251.708 15.5405 251.724 15.3347 251.751 15.2102C251.778 15.0857 251.81 15.0261 251.837 15.0261H259.871C259.898 15.0261 259.93 15.0857 259.957 15.2102C259.984 15.3347 260 15.5405 260 15.8274C260 16.1144 259.984 16.3202 259.957 16.4447C259.93 16.5692 259.898 16.6288 259.871 16.6288H256.713V28.3888C256.713 28.4754 256.429 28.5187 255.854 28.5187C255.28 28.5187 254.995 28.4754 254.995 28.3888Z" fill="white"/>
<path d="M0.20407 28.4747C0.0698133 28.4476 0 28.4151 0 28.388L5.28433 15.0469C5.32729 14.9603 5.61191 14.917 6.14357 14.917C6.67522 14.917 6.95984 14.9603 7.00281 15.0469L12.2871 28.388C12.2871 28.4151 12.2173 28.4476 12.0723 28.4747C11.9273 28.5017 11.7071 28.518 11.4064 28.518C11.1057 28.518 10.8801 28.5017 10.7298 28.4747C10.5794 28.4476 10.4988 28.4151 10.4827 28.388L9.60201 26.114H2.5992L1.71848 28.388C1.70237 28.4151 1.62719 28.4476 1.48219 28.4747C1.33719 28.5017 1.12238 28.518 0.837759 28.518C0.553136 28.518 0.338326 28.5017 0.20407 28.4747ZM3.20067 24.5546H9.02202L6.12209 16.9961L3.20067 24.5546Z" fill="white"/>
<path d="M17.0126 27.858C15.9976 27.23 15.2028 26.3691 14.6389 25.2808C14.0751 24.1925 13.7904 22.9742 13.7904 21.6315C13.7904 20.3591 14.1073 19.2004 14.7356 18.1554C15.3639 17.1104 16.2232 16.2875 17.3026 15.6973C18.382 15.1071 19.5742 14.8093 20.8792 14.8093C21.6364 14.8093 22.3775 14.8905 23.0917 15.0584C23.806 15.2262 24.4396 15.4591 24.982 15.7623C25.0411 15.8326 25.0304 15.9951 24.9606 16.2387C24.8907 16.4824 24.7941 16.7152 24.6706 16.9318C24.547 17.1483 24.445 17.2566 24.3591 17.2566C23.8704 17.0238 23.328 16.8397 22.7265 16.6935C22.1251 16.5473 21.529 16.477 20.9436 16.477C19.9555 16.477 19.0533 16.7098 18.237 17.17C17.4207 17.6302 16.7763 18.2583 16.3037 19.0434C15.8311 19.8285 15.5948 20.6948 15.5948 21.6315C15.5948 22.6873 15.7989 23.6294 16.207 24.4578C16.6152 25.2862 17.1898 25.9413 17.9255 26.4178C18.6613 26.8943 19.5205 27.1325 20.4925 27.1325C21.5934 27.1325 22.5386 26.8455 23.3173 26.2662C24.0959 25.6869 24.59 24.9451 24.7887 24.0355H20.557C20.471 24.0355 20.4281 23.7756 20.4281 23.2558C20.4281 22.9688 20.4442 22.7577 20.471 22.6277C20.4979 22.4978 20.5301 22.4328 20.557 22.4328H26.0346C26.3944 22.4328 26.5716 22.671 26.5716 23.1475C26.5716 24.2033 26.3085 25.1562 25.7768 26.0171C25.2452 26.878 24.5148 27.5548 23.5858 28.0529C22.6567 28.5511 21.6149 28.8001 20.471 28.8001C19.1822 28.8001 18.0276 28.4861 17.0126 27.858Z" fill="white"/>
<path d="M30.0931 15.0261H37.0744C37.1013 15.0261 37.1335 15.0857 37.1604 15.2102C37.1872 15.3347 37.2033 15.5405 37.2033 15.8275C37.2033 16.1144 37.1872 16.3202 37.1604 16.4447C37.1335 16.5692 37.1013 16.6288 37.0744 16.6288H31.8116V20.224H35.6567C35.6836 20.224 35.7158 20.2835 35.7426 20.408C35.7695 20.5326 35.7856 20.7383 35.7856 21.0253C35.7856 21.3122 35.7695 21.518 35.7426 21.6425C35.7158 21.7671 35.6836 21.8266 35.6567 21.8266H31.8116V26.8512H37.2893C37.3161 26.8512 37.3483 26.9107 37.3752 27.0353C37.402 27.1598 37.4181 27.3656 37.4181 27.6525C37.4181 27.9395 37.402 28.1452 37.3752 28.2698C37.3483 28.3943 37.3161 28.4539 37.2893 28.4539H30.0931V15.0261Z" fill="white"/>
<path d="M41.2874 28.388V15.0902C41.2874 15.0631 41.3572 15.0306 41.4914 15.0035C41.6257 14.9764 41.8298 14.9602 42.1036 14.9602C42.6192 14.9602 42.8984 15.0035 42.9414 15.0902L50.696 25.6158V15.0902C50.696 15.0035 50.9807 14.9602 51.5553 14.9602C52.1299 14.9602 52.4145 15.0035 52.4145 15.0902V28.388C52.4145 28.4151 52.3447 28.4475 52.2104 28.4746C52.0762 28.5017 51.8721 28.5179 51.5982 28.5179C51.0827 28.5179 50.8034 28.4746 50.7605 28.388L43.0058 17.884V28.388C43.0058 28.4746 42.7212 28.5179 42.1466 28.5179C41.572 28.5179 41.2874 28.4746 41.2874 28.388Z" fill="white"/>
<path d="M57.0114 15.0261H60.5773C62.0971 15.0261 63.4074 15.3077 64.5083 15.8708C65.6092 16.4339 66.447 17.2135 67.0216 18.2098C67.5962 19.206 67.8808 20.3485 67.8808 21.6317C67.8808 22.9745 67.607 24.1602 67.0538 25.1835C66.5007 26.2069 65.6683 27.0082 64.5513 27.5875C63.4343 28.1669 62.0595 28.4539 60.4269 28.4539H57.0114V15.0261ZM60.5129 26.8512C62.3763 26.8512 63.7672 26.3693 64.6909 25.4001C65.6146 24.4309 66.0764 23.1748 66.0764 21.6317C66.0764 20.1319 65.6092 18.9191 64.6694 18.004C63.7296 17.089 62.3441 16.6288 60.5129 16.6288H58.7299V26.8512H60.5129Z" fill="white"/>
<path d="M69.9956 28.4742C69.8614 28.4471 69.7916 28.4146 69.7916 28.3876L75.0759 15.0464C75.1189 14.9598 75.4035 14.9165 75.9351 14.9165C76.4668 14.9165 76.7514 14.9598 76.7944 15.0464L82.0787 28.3876C82.0787 28.4146 82.0089 28.4471 81.8639 28.4742C81.7189 28.5013 81.4987 28.5175 81.198 28.5175C80.8972 28.5175 80.6717 28.5013 80.5213 28.4742C80.371 28.4471 80.2904 28.4146 80.2743 28.3876L79.3936 26.1135H72.3908L71.51 28.3876C71.4939 28.4146 71.4187 28.4471 71.2738 28.4742C71.1288 28.5013 70.9139 28.5175 70.6293 28.5175C70.3393 28.5175 70.1299 28.5013 69.9956 28.4742ZM72.9922 24.5542H78.8136L75.9136 16.9956L72.9922 24.5542Z" fill="white"/>
<path d="M85.0946 22.0429C84.8315 21.7668 84.6972 21.4528 84.6972 21.09C84.6972 20.7272 84.8261 20.4349 85.0839 20.2129C85.3417 19.9909 85.6478 19.8772 86.0076 19.8772C86.3781 19.8772 86.6842 19.9855 86.9205 20.2021C87.1568 20.4186 87.275 20.7002 87.275 21.0467C87.275 21.4365 87.1515 21.7668 86.9098 22.0429C86.6681 22.3191 86.3566 22.4544 85.9861 22.4544C85.6531 22.4544 85.3578 22.3191 85.0946 22.0429ZM85.1161 28.2586C84.8637 27.9825 84.7402 27.6739 84.7402 27.3273C84.7402 26.9971 84.8691 26.7155 85.1269 26.4827C85.3846 26.2499 85.6854 26.1362 86.0291 26.1362C86.3996 26.1362 86.7111 26.2391 86.9528 26.4502C87.1944 26.6614 87.3179 26.9375 87.3179 27.284C87.3179 27.6739 87.1944 28.0041 86.942 28.2694C86.6896 28.5348 86.3728 28.6701 85.9861 28.6701C85.6531 28.6701 85.3631 28.5348 85.1161 28.2586Z" fill="white"/>
<path d="M137.859 32.6814C130.357 34.8742 127.618 35.1774 123.392 34.5439C120.583 34.1216 113.752 31.057 112.48 27.1911C111.207 23.3198 108.361 17.9595 111.91 12.6101C115.46 7.26062 119.402 1.31016 125.304 1.41845C131.206 1.52674 135.926 1.80829 141.42 6.07486C145.335 9.11235 149.432 19.0857 147.214 23.7205C144.997 28.3552 142.44 31.344 137.859 32.6814Z" stroke="white" stroke-width="2.8" stroke-miterlimit="10"/>
<path d="M112.982 14.1261C109.733 12.4368 106.962 9.74041 103.67 11.0453C100.378 12.3448 94.2778 16.4002 93.7408 19.1399C93.2038 21.8796 95.4163 25.7834 96.4313 27.6189C97.4463 29.4544 102.07 34.6522 106.318 36.2549C110.566 37.8521 115.646 36.7909 119.513 34.793C123.379 32.7897 129.131 29.6222 128.352 25.1986C127.573 20.775 124.878 19.2915 120.904 17.4722C116.935 15.6421 117.284 16.3677 112.982 14.1261Z" stroke="white" stroke-width="2.8" stroke-miterlimit="10"/>
</svg>
