<svg width="16" height="22" viewBox="0 0 16 22" fill="none" xmlns="http://www.w3.org/2000/svg">
<path d="M0 3.05863C0 3.00949 0.101644 2.96036 0.304933 2.91122C0.508221 2.86209 0.825112 2.83752 1.25561 2.83752C1.6861 2.83752 2.00299 2.86209 2.20628 2.91122C2.40957 2.96036 2.51121 3.00949 2.51121 3.05863V19.4941H13.4888V5.56449H7.31839V2.98492C7.31839 2.83752 7.26457 2.72083 7.15695 2.63484C7.04933 2.54886 6.92377 2.50586 6.78027 2.50586C6.63677 2.50586 6.51121 2.54886 6.40359 2.63484C6.29596 2.72083 6.24215 2.83752 6.24215 2.98492V9.13903C6.24215 9.18816 6.14649 9.2373 5.95516 9.28643C5.76383 9.33557 5.46487 9.36013 5.0583 9.36013C4.65172 9.36013 4.35277 9.33557 4.16143 9.28643C3.9701 9.2373 3.87444 9.18816 3.87444 9.13903V3.05863C3.87444 2.1742 4.12556 1.44333 4.6278 0.865997C5.13004 0.288666 5.84753 0 6.78027 0C7.713 0 8.43049 0.288666 8.93273 0.865997C9.43498 1.44333 9.6861 2.1742 9.6861 3.05863H16V22H0V3.05863Z" fill="#1F1F1F"/>
</svg>
