<svg width="1414" height="812" viewBox="0 0 1414 812" fill="none" xmlns="http://www.w3.org/2000/svg">
<path opacity="0.2" d="M665.152 734.968C484.794 786.517 418.951 793.645 317.346 778.753C249.825 768.825 85.6056 696.783 55.008 605.902C24.4105 514.895 -44.0144 388.884 41.3231 263.129C126.79 137.373 221.552 -2.51143 363.437 0.0342368C505.321 2.5799 618.804 9.19862 750.877 109.498C844.993 180.904 943.499 415.359 890.179 524.314C836.859 633.268 775.406 703.529 665.152 734.968Z" fill="#10CFC9"/>
<path opacity="0.2" d="M1045.42 215.673C974.956 165.819 918.548 92.9626 838.289 115.328C758.046 137.563 604.502 218.566 583.984 283.263C563.342 347.945 603.361 448.433 621.531 495.604C639.7 542.774 731.77 681.221 825.677 731.763C919.599 782.173 1040.66 770.671 1136.29 733.16C1231.93 695.649 1374.78 634.998 1369.7 525.956C1364.62 416.915 1306.39 373.57 1219.48 318.558C1132.57 263.547 1138.69 281.8 1045.42 215.673Z" fill="#8012B7"/>
</svg>
