<svg width="311" height="260" viewBox="0 0 311 260" fill="none" xmlns="http://www.w3.org/2000/svg">
<path opacity="0.2" d="M211.435 235.334C154.104 251.84 133.174 254.123 100.877 249.354C79.4132 246.175 27.2119 223.108 17.4857 194.008C7.75948 164.868 -13.9911 124.52 13.1356 84.253C40.3033 43.9864 70.4257 -0.804152 115.527 0.0109625C160.629 0.826077 196.702 2.94537 238.685 35.0609C268.602 57.9248 299.915 132.997 282.966 167.884C266.017 202.771 246.482 225.268 211.435 235.334Z" fill="#10CFC9"/>
<path opacity="0.2" d="M332.312 69.0583C309.914 53.0949 291.983 29.7666 266.471 36.928C240.964 44.0474 192.156 69.9844 185.634 90.7002C179.072 111.411 191.793 143.587 197.569 158.691C203.344 173.795 232.611 218.125 262.461 234.308C292.317 250.45 330.799 246.767 361.199 234.756C391.599 222.745 437.006 203.325 435.392 168.41C433.777 133.495 415.268 119.616 387.641 102.002C360.014 84.3871 361.962 90.2319 332.312 69.0583Z" fill="#8012B7"/>
</svg>
