<svg width="32" height="32" viewBox="0 0 32 32" fill="none" xmlns="http://www.w3.org/2000/svg">
<path d="M32 16C32 19.215 32 21.3832 31.9252 22.5794C31.7757 25.4953 30.9533 27.7383 29.3084 29.3084C27.6636 30.8785 25.4953 31.7757 22.5794 31.9252C21.3832 32 19.1402 32 16 32C12.785 32 10.6168 32 9.42056 31.9252C6.50467 31.7757 4.26168 30.9533 2.69159 29.3084C1.1215 27.7383 0.224299 25.4953 0.0747663 22.5794C-7.24169e-08 21.3832 0 19.1402 0 16C0 12.8598 -7.24169e-08 10.6168 0.0747663 9.42056C0.224299 6.50467 1.04673 4.26168 2.69159 2.69159C4.26168 1.1215 6.50467 0.224299 9.42056 0.0747663C10.6168 -7.24169e-08 12.8598 0 16 0C19.215 0 21.3832 -7.24169e-08 22.5794 0.0747663C25.4953 0.224299 27.7383 1.04673 29.3084 2.69159C30.8785 4.33645 31.7757 6.50467 31.9252 9.42056C31.9252 10.6168 32 12.785 32 16ZM17.5701 2.84112C16.5981 2.84112 16.0748 2.84112 16 2.84112C15.9252 2.84112 15.4019 2.84112 14.4299 2.84112C13.4579 2.84112 12.7103 2.84112 12.2617 2.84112C11.7383 2.84112 11.0654 2.84112 10.243 2.91589C9.42056 2.91589 8.6729 2.99065 8.07477 3.14019C7.47664 3.21495 6.95327 3.36449 6.57944 3.51402C5.90654 3.81308 5.30841 4.18692 4.71028 4.71028C4.18692 5.23364 3.81308 5.83178 3.51402 6.57944C3.36449 6.95327 3.21495 7.47663 3.14019 8.07477C3.06542 8.6729 2.99065 9.34579 2.91589 10.243C2.91589 11.0654 2.84112 11.7383 2.84112 12.2617C2.84112 12.785 2.84112 13.5327 2.84112 14.4299C2.84112 15.4019 2.84112 15.9252 2.84112 16C2.84112 16.0748 2.84112 16.5981 2.84112 17.5701C2.84112 18.5421 2.84112 19.2897 2.84112 19.7383C2.84112 20.2617 2.84112 20.9346 2.91589 21.757C2.91589 22.5794 2.99065 23.3271 3.14019 23.9252C3.28972 24.5234 3.36449 25.0467 3.51402 25.4206C3.81308 26.0935 4.18692 26.6916 4.71028 27.2897C5.23364 27.8131 5.83178 28.1869 6.57944 28.486C6.95327 28.6355 7.47664 28.785 8.07477 28.8598C8.6729 28.9346 9.34579 29.0093 10.243 29.0841C11.1402 29.1589 11.7383 29.1589 12.2617 29.1589C12.785 29.1589 13.5327 29.1589 14.4299 29.1589C15.4019 29.1589 15.9252 29.1589 16 29.1589C16.0748 29.1589 16.5981 29.1589 17.5701 29.1589C18.5421 29.1589 19.2897 29.1589 19.7383 29.1589C20.2617 29.1589 20.9346 29.1589 21.757 29.0841C22.5794 29.0841 23.3271 29.0093 23.9252 28.8598C24.5234 28.785 25.0467 28.6355 25.4206 28.486C26.0935 28.1869 26.6916 27.8131 27.2897 27.2897C27.8131 26.7664 28.1869 26.1682 28.486 25.4206C28.6355 25.0467 28.785 24.5234 28.8598 23.9252C28.9346 23.3271 29.0093 22.6542 29.0841 21.757C29.0841 20.9346 29.1589 20.2617 29.1589 19.7383C29.1589 19.215 29.1589 18.4673 29.1589 17.5701C29.1589 16.5981 29.1589 16.0748 29.1589 16C29.1589 15.9252 29.1589 15.4019 29.1589 14.4299C29.1589 13.4579 29.1589 12.7103 29.1589 12.2617C29.1589 11.7383 29.1589 11.0654 29.0841 10.243C29.0841 9.42056 29.0093 8.6729 28.8598 8.07477C28.785 7.47663 28.6355 6.95327 28.486 6.57944C28.1869 5.90654 27.8131 5.30841 27.2897 4.71028C26.7664 4.18692 26.1682 3.81308 25.4206 3.51402C25.0467 3.36449 24.5234 3.21495 23.9252 3.14019C23.3271 3.06542 22.6542 2.99065 21.757 2.91589C20.9346 2.91589 20.2617 2.84112 19.7383 2.84112C19.2897 2.84112 18.5421 2.84112 17.5701 2.84112ZM21.757 10.1682C23.3271 11.7383 24.1495 13.6822 24.1495 16C24.1495 18.3178 23.3271 20.1869 21.757 21.8318C20.1869 23.4019 18.243 24.2243 15.9252 24.2243C13.6075 24.2243 11.7383 23.4019 10.0935 21.8318C8.52336 20.2617 7.70093 18.3178 7.70093 16C7.70093 13.6822 8.52336 11.8131 10.0935 10.1682C11.6636 8.59813 13.6075 7.7757 15.9252 7.7757C18.243 7.7757 20.1869 8.52337 21.757 10.1682ZM19.7383 19.7383C20.785 18.6916 21.3084 17.4206 21.3084 16C21.3084 14.5794 20.785 13.2336 19.7383 12.1869C18.6916 11.1402 17.4206 10.6168 15.9252 10.6168C14.4299 10.6168 13.1589 11.1402 12.1122 12.1869C11.0654 13.2336 10.5421 14.5047 10.5421 16C10.5421 17.4953 11.0654 18.7664 12.1122 19.7383C13.1589 20.785 14.4299 21.3084 15.9252 21.3084C17.4206 21.3084 18.6916 20.785 19.7383 19.7383ZM25.8692 6.05608C26.243 6.42991 26.4673 6.8785 26.4673 7.40187C26.4673 7.92523 26.243 8.37383 25.8692 8.74766C25.4953 9.1215 25.0467 9.34579 24.5234 9.34579C24 9.34579 23.5514 9.1215 23.1776 8.74766C22.8037 8.37383 22.5794 7.92523 22.5794 7.40187C22.5794 6.8785 22.8037 6.42991 23.1776 6.05608C23.5514 5.68224 24 5.45794 24.5234 5.45794C25.0467 5.45794 25.4953 5.68224 25.8692 6.05608Z" fill="white"/>
</svg>
