<svg width="27" height="27" viewBox="0 0 27 27" fill="none" xmlns="http://www.w3.org/2000/svg">
<path d="M4.09576 25.93C2.82966 25.2167 1.83051 24.2302 1.09831 22.9705C0.366103 21.7108 0 20.3069 0 18.7589V8.24115C0 6.69309 0.366103 5.28921 1.09831 4.02951C1.83051 2.76981 2.82966 1.78331 4.09576 1.06998C5.36186 0.356661 6.77291 0 8.32884 0H18.6712C20.2271 0 21.6381 0.356661 22.9042 1.06998C24.1703 1.78331 25.1695 2.76981 25.9017 4.02951C26.6339 5.28921 27 6.69309 27 8.24115L26.9542 14.8887H17.939C18 14.4941 18.0305 13.9933 18.0305 13.3862C18.0305 12.1113 17.5957 11.0337 16.7263 10.1535C15.8568 9.27319 14.7966 8.83305 13.5458 8.83305C12.2949 8.83305 11.2271 9.27319 10.3424 10.1535C9.45762 11.0337 9.01525 12.0961 9.01525 13.3406C9.01525 14.6155 9.45762 15.6931 10.3424 16.5734C11.2271 17.4536 12.2949 17.8938 13.5458 17.8938C14.1254 17.8938 14.6975 17.7723 15.2619 17.5295C15.8263 17.2867 16.3068 16.9528 16.7034 16.5278C16.917 16.4368 17.3593 16.7251 18.0305 17.3929C18.7932 18.1518 19.1136 18.5919 18.9915 18.7133C18.3509 19.3811 17.5347 19.9275 16.5432 20.3524C15.5517 20.7774 14.5525 20.9899 13.5458 20.9899C12.1424 20.9899 10.8458 20.656 9.65595 19.9882C8.46612 19.3204 7.52799 18.4022 6.84155 17.2336C6.1551 16.0649 5.81186 14.7673 5.81186 13.3406C5.81186 11.9444 6.16271 10.6619 6.8644 9.49326C7.5661 8.32462 8.50423 7.40641 9.67881 6.73862C10.8534 6.07083 12.1424 5.73693 13.5458 5.73693C15.3458 5.73693 16.9551 6.31366 18.3737 7.46712C19.7924 8.62057 20.6848 10.0624 21.0509 11.7926H23.7508L23.7966 8.24115C23.7966 6.8145 23.3008 5.60034 22.3093 4.59865C21.3178 3.59696 20.1051 3.09612 18.6712 3.09612H8.32884C6.89494 3.09612 5.68222 3.59696 4.69069 4.59865C3.69917 5.60034 3.2034 6.8145 3.2034 8.24115V18.7589C3.2034 20.1855 3.69917 21.3997 4.69069 22.4013C5.68222 23.403 6.89494 23.9039 8.32884 23.9039H18.6712C20.1966 23.9039 21.4322 23.4334 22.378 22.4924C23.3237 21.5514 23.7966 20.3524 23.7966 18.8954V17.1653C23.7966 17.1046 23.9263 17.0438 24.1856 16.9831C24.4449 16.9224 24.8492 16.8921 25.3983 16.8921C25.9475 16.8921 26.3517 16.9224 26.611 16.9831C26.8703 17.0438 27 17.1046 27 17.1653V18.8954C27 20.4435 26.6415 21.8322 25.9246 23.0616C25.2076 24.2909 24.2085 25.2546 22.9271 25.9528C21.6457 26.6509 20.2271 27 18.6712 27H8.32884C6.77291 27 5.36186 26.6433 4.09576 25.93Z" fill="white"/>
</svg>
