<svg width="9" height="13" viewBox="0 0 9 13" fill="none" xmlns="http://www.w3.org/2000/svg">
<path d="M6.28685 6.46511C6.74296 5.12717 6.78249 4.02945 6.39936 3.17194C6.11048 2.52426 5.69693 2.08334 5.15872 1.84616C4.6205 1.60898 4.08228 1.61202 3.5471 1.85224C3.0697 2.0651 2.71392 2.41783 2.47066 2.91348C2.23044 3.40913 2.09969 3.97775 2.0784 4.61632C2.0784 4.64672 2.01455 4.67409 1.88683 4.70146C1.75912 4.72883 1.58275 4.73491 1.3547 4.7197C1.1388 4.69842 0.983721 4.66497 0.883375 4.6224C0.783029 4.57983 0.734375 4.54334 0.734375 4.51293C0.767824 3.60374 0.974597 2.81313 1.3547 2.13808C1.73479 1.46302 2.29734 0.958255 3.04233 0.626809C3.6292 0.365302 4.22215 0.267997 4.82423 0.334894C5.42631 0.404832 5.97669 0.62985 6.47841 1.01299C6.98014 1.39613 7.38153 1.92522 7.67953 2.59724C8.18734 3.73449 8.20254 5.04811 7.72818 6.54417C7.25381 8.04024 5.61787 11.1023 5.61787 11.1023L5.04013 12.0145H3.48933C3.51973 12.0297 2.80819 10.704 2.58317 10.1293L1.14488 6.44687C1.13576 6.42254 1.17833 6.37693 1.27563 6.31003C1.37294 6.24314 1.53106 6.16712 1.75608 6.07893C1.9811 5.99075 2.15138 5.93906 2.26693 5.92385C2.38248 5.90865 2.44634 5.91169 2.45546 5.93602L3.87855 9.58192C4.00018 9.85863 4.36507 10.5823 4.36507 10.5823" fill="black"/>
</svg>
