<svg width="215" height="29" viewBox="0 0 215 29" fill="none" xmlns="http://www.w3.org/2000/svg">
<g clip-path="url(#clip0)">
<path d="M128.627 24.5286C128.605 24.4272 128.592 24.2597 128.592 24.026C128.592 23.7923 128.605 23.6247 128.627 23.5233C128.649 23.4219 128.676 23.3734 128.698 23.3734H129.068C129.491 23.3734 129.857 23.2058 130.17 22.8707C130.484 22.5356 130.638 22.1079 130.638 21.592V11.1332C130.638 11.0626 130.872 11.0273 131.343 11.0273C131.815 11.0273 132.049 11.0626 132.049 11.1332V21.645C132.049 22.54 131.784 23.2632 131.255 23.8143C130.726 24.3655 130.034 24.6565 129.174 24.6786H128.698C128.671 24.6786 128.649 24.6301 128.627 24.5286Z" fill="black"/>
<path d="M134.753 22.033C134.642 22.011 134.585 21.9845 134.585 21.9625L138.924 11.098C138.959 11.0274 139.193 10.9921 139.63 10.9921C140.066 10.9921 140.3 11.0274 140.335 11.098L144.674 21.9625C144.674 21.9845 144.617 22.011 144.498 22.033C144.379 22.0551 144.198 22.0683 143.951 22.0683C143.704 22.0683 143.519 22.0551 143.396 22.033C143.272 22.011 143.206 21.9845 143.193 21.9625L142.47 20.1106H136.719L135.996 21.9625C135.983 21.9845 135.921 22.011 135.802 22.033C135.683 22.0551 135.507 22.0683 135.273 22.0683C135.039 22.0683 134.867 22.0551 134.753 22.033ZM137.213 18.8407H141.993L139.612 12.6853L137.213 18.8407ZM137.557 9.30779C137.385 9.11378 137.301 8.89331 137.301 8.64639C137.301 8.4127 137.394 8.20987 137.575 8.04673C137.756 7.88358 137.985 7.7998 138.254 7.7998C138.501 7.7998 138.708 7.87476 138.88 8.02027C139.052 8.16578 139.136 8.3642 139.136 8.61112C139.136 8.88008 139.043 9.11378 138.854 9.30779C138.664 9.5018 138.435 9.5988 138.166 9.5988C137.932 9.5988 137.729 9.5018 137.557 9.30779ZM140.423 9.31661C140.247 9.127 140.159 8.90654 140.159 8.64639C140.159 8.39947 140.247 8.19664 140.423 8.03791C140.6 7.87917 140.829 7.7998 141.111 7.7998C141.371 7.7998 141.579 7.87476 141.738 8.02909C141.896 8.18341 141.976 8.37742 141.976 8.61112C141.976 8.88008 141.887 9.11378 141.711 9.30779C141.535 9.5018 141.31 9.5988 141.041 9.5988C140.807 9.5988 140.6 9.50621 140.423 9.31661Z" fill="black"/>
<path d="M146.782 22.0331C146.672 22.0111 146.614 21.9846 146.614 21.9626L148.555 11.0804C148.59 11.0099 148.819 10.9746 149.242 10.9746C149.666 10.9746 149.895 11.0099 149.93 11.0804L153 19.9343L156.051 11.0804C156.086 11.0099 156.316 10.9746 156.739 10.9746C157.149 10.9746 157.374 11.0099 157.409 11.0804L159.385 21.9626C159.385 21.9846 159.327 22.0111 159.208 22.0331C159.089 22.0552 158.909 22.0684 158.662 22.0684C158.216 22.0684 157.974 22.0331 157.938 21.9626L156.527 13.3556L153.635 21.8039C153.621 21.8259 153.564 21.8524 153.458 21.8744C153.352 21.8965 153.189 21.9097 152.964 21.9097C152.753 21.9097 152.594 21.8965 152.488 21.8744C152.382 21.8524 152.325 21.8259 152.312 21.8039L149.419 13.3556L148.008 21.9626C147.972 22.0331 147.739 22.0684 147.302 22.0684C147.068 22.0684 146.896 22.0552 146.782 22.0331Z" fill="black"/>
<path d="M162.631 11.1332C162.631 11.0626 162.865 11.0273 163.336 11.0273C163.808 11.0273 164.042 11.0626 164.042 11.1332V20.7102H168.54C168.562 20.7102 168.588 20.7587 168.61 20.8601C168.632 20.9615 168.646 21.1291 168.646 21.3628C168.646 21.5964 168.632 21.764 168.61 21.8654C168.588 21.9668 168.562 22.0153 168.54 22.0153H162.631V11.1332Z" fill="black"/>
<path d="M171.503 21.9624V11.1332C171.503 11.0626 171.737 11.0273 172.208 11.0273C172.68 11.0273 172.914 11.0626 172.914 11.1332V21.9624C172.914 22.033 172.68 22.0682 172.208 22.0682C171.741 22.0682 171.503 22.033 171.503 21.9624Z" fill="black"/>
<path d="M176.83 21.9624V11.1332C176.83 11.0626 177.064 11.0273 177.536 11.0273C178.007 11.0273 178.241 11.0626 178.241 11.1332V15.3485L181.998 11.1332C182.069 11.0626 182.355 11.0273 182.863 11.0273C183.392 11.0273 183.674 11.0626 183.709 11.1332L179.423 15.7541L185.35 21.9624C185.314 22.033 185.01 22.0682 184.432 22.0682C183.846 22.0682 183.515 22.033 183.445 21.9624L178.241 16.4067V21.9624C178.241 22.033 178.007 22.0682 177.536 22.0682C177.068 22.0682 176.83 22.033 176.83 21.9624Z" fill="black"/>
<path d="M187.536 21.9624V11.1332C187.536 11.0626 187.77 11.0273 188.242 11.0273C188.714 11.0273 188.947 11.0626 188.947 11.1332V15.3132H194.821V11.1332C194.821 11.0626 195.055 11.0273 195.527 11.0273C195.998 11.0273 196.232 11.0626 196.232 11.1332V21.9624C196.232 22.033 195.998 22.0682 195.527 22.0682C195.055 22.0682 194.821 22.033 194.821 21.9624V16.6183H188.947V21.9624C188.947 22.033 188.714 22.0682 188.242 22.0682C187.774 22.0682 187.536 22.033 187.536 21.9624Z" fill="black"/>
<path d="M200.06 11.0806H205.792C205.814 11.0806 205.841 11.1291 205.863 11.2305C205.885 11.3319 205.898 11.4995 205.898 11.7331C205.898 11.9668 205.885 12.1344 205.863 12.2358C205.841 12.3372 205.814 12.3857 205.792 12.3857H201.471V15.3135H204.628C204.65 15.3135 204.677 15.362 204.699 15.4634C204.721 15.5648 204.734 15.7324 204.734 15.9661C204.734 16.1998 204.721 16.3673 204.699 16.4687C204.677 16.5702 204.65 16.6187 204.628 16.6187H201.471V20.7105H205.969C205.991 20.7105 206.017 20.759 206.039 20.8604C206.061 20.9618 206.074 21.1294 206.074 21.3631C206.074 21.5968 206.061 21.7643 206.039 21.8657C206.017 21.9671 205.991 22.0156 205.969 22.0156H200.06V11.0806Z" fill="black"/>
<path d="M210.89 21.9627V12.3857H208.297C208.275 12.3857 208.249 12.3372 208.227 12.2358C208.205 12.1344 208.191 11.9668 208.191 11.7331C208.191 11.4995 208.205 11.3319 208.227 11.2305C208.249 11.1291 208.275 11.0806 208.297 11.0806H214.894C214.916 11.0806 214.943 11.1291 214.965 11.2305C214.987 11.3319 215 11.4995 215 11.7331C215 11.9668 214.987 12.1344 214.965 12.2358C214.943 12.3372 214.916 12.3857 214.894 12.3857H212.301V21.9627C212.301 22.0333 212.068 22.0686 211.596 22.0686C211.124 22.0686 210.89 22.0333 210.89 21.9627Z" fill="black"/>
<path d="M0.167569 22.0331C0.0573263 22.011 0 21.9846 0 21.9625L4.33916 11.098C4.37444 11.0275 4.60815 10.9922 5.04471 10.9922C5.48127 10.9922 5.71499 11.0275 5.75027 11.098L10.0894 21.9625C10.0894 21.9846 10.0321 22.011 9.91304 22.0331C9.79397 22.0551 9.61318 22.0684 9.36623 22.0684C9.11929 22.0684 8.93408 22.0551 8.81061 22.0331C8.68714 22.011 8.62099 21.9846 8.60776 21.9625L7.88457 20.1106H2.1343L1.41111 21.9625C1.39788 21.9846 1.33614 22.011 1.21708 22.0331C1.09802 22.0551 0.92163 22.0684 0.687915 22.0684C0.454201 22.0684 0.277812 22.0551 0.167569 22.0331ZM2.62819 18.8408H7.40832L5.02707 12.6854L2.62819 18.8408Z" fill="black"/>
<path d="M13.97 21.5302C13.1366 21.0188 12.484 20.3177 12.021 19.4314C11.5579 18.5451 11.3242 17.553 11.3242 16.4595C11.3242 15.4233 11.5844 14.4798 12.1003 13.6288C12.6163 12.7778 13.3218 12.1075 14.2082 11.6269C15.0945 11.1463 16.0735 10.9038 17.145 10.9038C17.7668 10.9038 18.3753 10.9699 18.9618 11.1066C19.5483 11.2433 20.0687 11.4329 20.5141 11.6798C20.5626 11.7372 20.5537 11.8694 20.4964 12.0679C20.4391 12.2663 20.3597 12.4559 20.2583 12.6323C20.1569 12.8086 20.0731 12.8968 20.0025 12.8968C19.6013 12.7072 19.1559 12.5573 18.662 12.4382C18.1681 12.3192 17.6786 12.2619 17.198 12.2619C16.3866 12.2619 15.6457 12.4515 14.9755 12.8263C14.3052 13.2011 13.776 13.7125 13.388 14.3519C12.9999 14.9912 12.8059 15.6967 12.8059 16.4595C12.8059 17.3193 12.9735 18.0866 13.3086 18.7612C13.6437 19.4358 14.1156 19.9693 14.7197 20.3574C15.3238 20.7454 16.0294 20.9394 16.8275 20.9394C17.7315 20.9394 18.5076 20.7057 19.147 20.2339C19.7865 19.7621 20.1922 19.158 20.3553 18.4173H16.8805C16.8099 18.4173 16.7746 18.2056 16.7746 17.7823C16.7746 17.5486 16.7879 17.3767 16.8099 17.2708C16.8319 17.165 16.8584 17.1121 16.8805 17.1121H21.3784C21.6738 17.1121 21.8193 17.3061 21.8193 17.6941C21.8193 18.554 21.6033 19.33 21.1667 20.0311C20.7301 20.7322 20.1304 21.2833 19.3675 21.689C18.6047 22.0946 17.7492 22.2975 16.8099 22.2975C15.7516 22.2975 14.8035 22.0417 13.97 21.5302Z" fill="black"/>
<path d="M24.7119 11.0801H30.4445C30.4666 11.0801 30.4931 11.1286 30.5151 11.23C30.5371 11.3314 30.5504 11.499 30.5504 11.7327C30.5504 11.9663 30.5371 12.1339 30.5151 12.2353C30.4931 12.3367 30.4666 12.3852 30.4445 12.3852H26.123V15.313H29.2804C29.3024 15.313 29.3289 15.3615 29.3509 15.4629C29.373 15.5643 29.3862 15.7319 29.3862 15.9656C29.3862 16.1993 29.373 16.3668 29.3509 16.4682C29.3289 16.5697 29.3024 16.6182 29.2804 16.6182H26.123V20.71H30.6209C30.643 20.71 30.6694 20.7585 30.6915 20.8599C30.7135 20.9613 30.7268 21.1289 30.7268 21.3626C30.7268 21.5963 30.7135 21.7638 30.6915 21.8652C30.6694 21.9667 30.643 22.0152 30.6209 22.0152H24.7119V11.0801Z" fill="black"/>
<path d="M33.9023 21.9624V11.1332C33.9023 11.1111 33.9597 11.0847 34.0699 11.0626C34.1802 11.0406 34.3477 11.0273 34.5726 11.0273C34.996 11.0273 35.2253 11.0626 35.2605 11.1332L41.6282 19.7049V11.1332C41.6282 11.0626 41.8619 11.0273 42.3337 11.0273C42.8056 11.0273 43.0393 11.0626 43.0393 11.1332V21.9624C43.0393 21.9845 42.982 22.0109 42.8717 22.033C42.7615 22.055 42.5939 22.0682 42.369 22.0682C41.9457 22.0682 41.7164 22.033 41.6811 21.9624L35.3135 13.4084V21.9624C35.3135 22.033 35.0797 22.0682 34.6079 22.0682C34.1361 22.0682 33.9023 22.033 33.9023 21.9624Z" fill="black"/>
<path d="M46.8135 11.0801H49.7415C50.9895 11.0801 52.0654 11.3094 52.9694 11.7679C53.8734 12.2265 54.5613 12.8614 55.0332 13.6728C55.505 14.4841 55.7387 15.4144 55.7387 16.4594C55.7387 17.5529 55.5138 18.5186 55.0596 19.3519C54.6054 20.1853 53.9219 20.8379 53.0047 21.3097C52.0875 21.7815 50.9586 22.0152 49.6181 22.0152H46.8135V11.0801ZM49.6886 20.71C51.2188 20.71 52.3609 20.3176 53.1194 19.5283C53.8778 18.739 54.2571 17.7161 54.2571 16.4594C54.2571 15.2381 53.8734 14.2504 53.1017 13.5052C52.33 12.76 51.1923 12.3852 49.6886 12.3852H48.2246V20.71H49.6886Z" fill="black"/>
<path d="M57.4762 22.0331C57.3659 22.011 57.3086 21.9846 57.3086 21.9625L61.6477 11.098C61.683 11.0275 61.9167 10.9922 62.3533 10.9922C62.7899 10.9922 63.0236 11.0275 63.0589 11.098L67.398 21.9625C67.398 21.9846 67.3407 22.011 67.2216 22.0331C67.1026 22.0551 66.9218 22.0684 66.6748 22.0684C66.4279 22.0684 66.2427 22.0551 66.1192 22.0331C65.9957 22.011 65.9296 21.9846 65.9163 21.9625L65.1932 20.1106H59.4429L58.7197 21.9625C58.7065 21.9846 58.6447 22.011 58.5257 22.0331C58.4066 22.0551 58.2302 22.0684 57.9965 22.0684C57.7584 22.0684 57.5864 22.0551 57.4762 22.0331ZM59.9368 18.8408H64.7169L62.3357 12.6854L59.9368 18.8408Z" fill="black"/>
<path d="M69.8761 16.7945C69.6601 16.5696 69.5498 16.3139 69.5498 16.0184C69.5498 15.723 69.6556 15.4849 69.8673 15.3041C70.079 15.1234 70.3303 15.0308 70.6258 15.0308C70.93 15.0308 71.1814 15.1189 71.3754 15.2953C71.5695 15.4717 71.6665 15.701 71.6665 15.9832C71.6665 16.3006 71.565 16.5696 71.3666 16.7945C71.1682 17.0194 70.9124 17.1296 70.6081 17.1296C70.3347 17.1296 70.0922 17.0194 69.8761 16.7945ZM69.8938 21.8564C69.6865 21.6315 69.5851 21.3802 69.5851 21.098C69.5851 20.829 69.6909 20.5997 69.9026 20.4101C70.1143 20.2205 70.3612 20.1279 70.6434 20.1279C70.9477 20.1279 71.2034 20.2117 71.4019 20.3837C71.6003 20.5556 71.7018 20.7805 71.7018 21.0627C71.7018 21.3802 71.6003 21.6491 71.3931 21.8652C71.1858 22.0812 70.9256 22.1915 70.6081 22.1915C70.3347 22.1915 70.0966 22.0812 69.8938 21.8564Z" fill="black"/>
<path d="M114.706 25.4591C108.545 27.2448 106.296 27.4917 102.826 26.9759C100.519 26.6319 94.9103 24.1363 93.8652 20.988C92.8201 17.8354 90.483 13.4701 93.3978 9.11376C96.317 4.75736 99.5537 -0.0884649 104.4 -0.000278825C109.246 0.0879073 113.122 0.317191 117.634 3.79172C120.848 6.26534 124.213 14.3873 122.392 18.1617C120.57 21.936 118.471 24.37 114.706 25.4591Z" fill="#00CCCC"/>
<g style="mix-blend-mode:multiply">
<path d="M94.2842 10.3485C91.6163 8.97282 89.3409 6.77698 86.6377 7.83962C83.9346 8.89786 78.9251 12.2004 78.4841 14.4315C78.0388 16.6626 79.86 19.8418 80.6934 21.3365C81.5269 22.8313 85.3236 27.0642 88.8117 28.3694C92.2998 29.6701 96.4714 28.8059 99.6464 27.1788C102.821 25.5518 107.544 22.968 106.905 19.3655C106.265 15.7631 104.052 14.555 100.788 13.0735C97.5253 11.5919 97.8163 12.174 94.2842 10.3485Z" fill="#660099"/>
</g>
</g>
<defs>
<clipPath id="clip0">
<rect width="215" height="29" fill="white"/>
</clipPath>
</defs>
</svg>
