<svg width="10" height="13" viewBox="0 0 10 13" fill="none" xmlns="http://www.w3.org/2000/svg">
<path d="M8.34068 12.1219C8.23142 12.0965 8.17679 12.071 8.17679 12.0455V8.31841C8.17679 7.84696 8.05789 7.48062 7.8201 7.21941C7.5823 6.95819 7.16133 6.69379 6.5572 6.42621L5.30394 5.85281L5.13041 5.77636L4.95689 5.85281L3.70363 6.42621C3.0995 6.69379 2.67853 6.95819 2.44073 7.21941C2.20293 7.48062 2.08404 7.84696 2.08404 8.31841V10.784H7.09706C7.12277 10.784 7.14848 10.8382 7.17419 10.9465C7.1999 11.0548 7.21275 11.2173 7.21275 11.4339C7.21275 11.6505 7.1999 11.8129 7.17419 11.9213C7.14848 12.0296 7.12277 12.0837 7.09706 12.0837H0.734375V8.28019C0.734375 7.69405 0.837206 7.2194 1.04287 6.85625C1.24853 6.4931 1.51525 6.20959 1.84303 6.00572C2.1708 5.80184 2.61105 5.58523 3.16377 5.35587L3.85788 5.05006C3.06093 4.47666 2.66246 3.82044 2.66246 3.08139C2.66246 2.64816 2.77493 2.24997 2.99988 1.88682C3.22482 1.52367 3.52689 1.24015 3.90608 1.03628C4.28527 0.832406 4.69338 0.730469 5.13041 0.730469C5.56745 0.730469 5.97556 0.832406 6.35475 1.03628C6.73394 1.24015 7.03601 1.52367 7.26095 1.88682C7.48589 2.24997 7.59837 2.64816 7.59837 3.08139C7.59837 3.82044 7.19989 4.47666 6.40295 5.05006L7.09706 5.35587C7.64978 5.58523 8.09003 5.80184 8.4178 6.00572C8.74558 6.20959 9.0123 6.4931 9.21796 6.85625C9.42362 7.2194 9.52645 7.69405 9.52645 8.28019V12.0455C9.52645 12.071 9.47183 12.0965 9.36257 12.1219C9.25331 12.1474 9.08299 12.1602 8.85162 12.1602C8.62025 12.1602 8.44994 12.1474 8.34068 12.1219ZM5.97877 3.85548C6.15873 3.63249 6.24871 3.37446 6.24871 3.08139C6.24871 2.77558 6.13945 2.51755 5.92093 2.30731C5.70241 2.09706 5.43891 1.99194 5.13041 1.99194C4.82192 1.99194 4.55842 2.09706 4.3399 2.30731C4.12138 2.51755 4.01212 2.77558 4.01212 3.08139C4.01212 3.37446 4.1021 3.63249 4.28206 3.85548C4.46201 4.07847 4.7448 4.2919 5.13041 4.49577C5.51603 4.2919 5.79882 4.07847 5.97877 3.85548Z" fill="black"/>
</svg>
