<svg width="34" height="19" viewBox="0 0 34 19" fill="none" xmlns="http://www.w3.org/2000/svg">
<path d="M33.796 10.5853C33.7454 10.8003 33.6948 10.9078 33.6442 10.9078L9.86189 10.9077L9.86189 17.6214C9.86189 17.9754 9.71649 18.2725 9.42569 18.5127C9.13489 18.7529 8.81248 18.873 8.45847 18.873C8.07916 18.873 7.75043 18.734 7.47227 18.4558L0.22757 11.2112C0.0758483 11.0595 -1.45271e-05 10.5032 -1.44431e-05 9.54227C-1.43591e-05 8.58138 0.0758486 8.02507 0.227571 7.87335L8.0033 0.0218464C8.05388 -0.0287269 8.18031 0.00920262 8.38261 0.135635C8.5849 0.262069 8.85041 0.48965 9.17915 0.818376C9.78603 1.47583 10.0263 1.86777 9.89982 1.99421L2.31374 9.54227L7.20676 14.587L7.20676 8.17679L33.6442 8.17679C33.6948 8.17679 33.7454 8.28426 33.796 8.4992C33.8465 8.71414 33.8718 9.06183 33.8718 9.54227C33.8718 10.0227 33.8465 10.3704 33.796 10.5853Z" fill="#1F1F1F"/>
</svg>
