<svg width="282" height="258" viewBox="0 0 282 258" fill="none" xmlns="http://www.w3.org/2000/svg">
<path opacity="0.2" fill-rule="evenodd" clip-rule="evenodd" d="M62.4351 54.4261C70.1318 51.4751 77.9713 48.4695 85.5195 44.9371C109.924 33.5439 118.047 28.0875 127.301 21.8707C134.448 17.0698 142.27 11.8155 158.786 3.02353C160.721 1.99375 162.629 0.984803 164.513 0H277.125C278.666 1.51327 280.096 3.12015 281.424 4.81201V160.263C270.694 188.807 252.913 215.197 227.407 231.219C189.681 254.857 120.439 259.679 99.5723 256.533C99.0201 256.45 98.4512 256.364 97.8666 256.277C76.3569 253.047 33.4747 246.609 14.7757 226.316C-4.46269 205.515 -2.15269 133.079 6.34666 99.3738C12.8463 73.4385 36.8527 64.2344 62.4351 54.4261Z" fill="#8012B7"/>
</svg>
