<svg width="23" height="20" viewBox="0 0 23 20" fill="none" xmlns="http://www.w3.org/2000/svg">
<path d="M0.817324 18.4888C0.326429 17.8536 0.146786 17.4873 0.278395 17.3898L8.30365 11.3836C8.46158 11.2666 9.01021 11.2781 9.94955 11.4179C10.8201 11.5476 11.3403 11.6719 11.5099 11.7908C11.8 12.0447 12.1745 12.282 12.6334 12.5025C13.0924 12.7231 13.5624 12.8692 14.0435 12.9408C14.9141 13.0705 15.7533 12.9788 16.561 12.6658C17.3687 12.3528 18.039 11.8613 18.572 11.1913C19.105 10.5213 19.4364 9.75099 19.566 8.8804C19.699 7.9869 19.6091 7.1363 19.2961 6.3286C18.9831 5.5209 18.4859 4.8497 17.8044 4.31499C17.1229 3.78028 16.3469 3.44811 15.4763 3.31848C14.6056 3.18885 13.7722 3.28138 12.976 3.59606C12.1797 3.91074 11.52 4.40967 10.9967 5.09285C10.4735 5.77603 10.147 6.55292 10.0174 7.42352C9.94916 7.88172 9.94284 8.39599 9.99844 8.9663C10.0145 9.01554 9.93385 9.08549 9.75642 9.17616C9.57899 9.26683 9.28701 9.34045 8.88047 9.39701C8.47393 9.45357 8.15928 9.48283 7.93651 9.48478C7.71375 9.48674 7.59432 9.46311 7.57823 9.41387C7.40905 8.66272 7.38587 7.87475 7.50867 7.04998C7.70653 5.72118 8.20807 4.55469 9.01331 3.55051C9.81855 2.54632 10.8245 1.80621 12.0312 1.33017C13.2379 0.85413 14.5056 0.715037 15.8344 0.912893C17.1633 1.11075 18.3355 1.61315 19.3511 2.42009C20.3668 3.22702 21.1184 4.23468 21.6059 5.44306C22.0934 6.65143 22.2382 7.92002 22.0403 9.24882C21.8425 10.5776 21.3352 11.7433 20.5185 12.7457C19.7018 13.7482 18.691 14.4817 17.486 14.9463C16.281 15.4109 15.0141 15.5443 13.6853 15.3464C12.9293 15.2339 12.2017 15.0084 11.5027 14.6702C10.8037 14.3319 10.1985 13.9139 9.68713 13.4163L1.75108 19.2952C1.61947 19.3927 1.30822 19.1239 0.817324 18.4888Z" fill="black"/>
</svg>
