<svg width="16" height="19" viewBox="0 0 16 19" fill="none" xmlns="http://www.w3.org/2000/svg">
<path d="M4.99458 18.7689L0.00444753 7.63979C-0.0207552 7.58845 0.0611536 7.49217 0.250174 7.35097C0.439194 7.20977 0.747927 7.03648 1.17637 6.8311C1.57962 6.65139 1.89465 6.53586 2.12147 6.48452C2.3483 6.43317 2.47431 6.43317 2.49951 6.48452L6.69576 16.0348L13.5383 0.053485C13.6139 -0.074879 14.0423 0.0278122 14.8236 0.361558C15.2521 0.566941 15.5608 0.740232 15.7498 0.881432C15.9388 1.02263 16.0208 1.11891 15.9956 1.17025L8.35914 18.7689C8.20792 18.923 7.64086 19 6.65796 19C5.70025 19 5.1458 18.923 4.99458 18.7689Z" fill="#1F1F1F"/>
<path d="M0 0V-1H-1V0H0ZM16 0H17V-1H16V0ZM16 19V20H17V19H16ZM0 19H-1V20H0V19ZM0 1H16V-1H0V1ZM15 0V19H17V0H15ZM16 18H0V20H16V18ZM1 19V0H-1V19H1Z" fill="white"/>
</svg>
