<svg width="13" height="13" viewBox="0 0 13 13" fill="none" xmlns="http://www.w3.org/2000/svg">
<path d="M6.08688 6.8164C6.10608 6.71078 6.01006 6.51234 6.43255 6.22107C6.86465 5.92341 6.87105 5.96822 6.97987 5.98742L9.54362 6.95723C9.56283 6.96043 9.56283 7.02125 9.55003 7.13967C9.53722 7.2581 9.48601 7.42133 9.40279 7.63578C9.24916 8.06787 9.12753 8.27592 9.03792 8.25671L6.05487 7.25169" fill="black"/>
<path d="M5.89124 4.44155L5.94246 2.57874C5.94246 2.57874 5.93925 2.29388 5.60318 2.3739C4.80621 2.56594 4.11806 2.94042 3.54194 3.49734C2.96581 4.05426 2.55932 4.72321 2.32247 5.49778C2.08562 6.27234 2.06642 7.06291 2.25846 7.87269C2.4505 8.66966 2.82498 9.35781 3.3819 9.93393C3.94202 10.5101 4.60137 10.9165 5.35993 11.1502C6.11849 11.3838 6.89946 11.4031 7.69643 11.2142C8.49341 11.0222 9.18155 10.6509 9.76088 10.1004C10.3402 9.54665 10.7435 8.88731 10.9771 8.12234C11.2108 7.35738 11.23 6.57321 11.038 5.77624C10.8683 5.06568 10.5675 4.45435 10.1354 3.93904C9.70327 3.42373 9.16875 3.01724 8.53181 2.72278C8.471 2.68437 8.52861 2.46032 8.70785 2.05063C8.90309 1.66015 9.03752 1.47771 9.10794 1.50011C9.88891 1.85219 10.5739 2.3835 11.1564 3.09406C11.7421 3.80461 12.1358 4.59518 12.3438 5.46577C12.5839 6.47399 12.5551 7.4758 12.251 8.46802C11.9502 9.46023 11.4188 10.318 10.6635 11.0382C9.90811 11.7583 9.01832 12.2416 7.9973 12.4849C6.97628 12.7281 5.96806 12.6993 4.97585 12.3985C3.98363 12.0976 3.12265 11.5695 2.39609 10.8237C1.67273 10.0748 1.18943 9.19777 0.946176 8.18956C0.699723 7.15573 0.728529 6.14111 1.039 5.1457C1.34626 4.15028 1.87438 3.2893 2.62334 2.56594C3.3723 1.83938 4.27169 1.41049 5.27671 1.11283C6.08008 0.875977 6.40015 0.875977 6.72022 0.875977C6.72022 0.875977 7.04029 0.875977 7.26434 1.11603L7.13631 6.67243C7.12031 6.76845 6.92827 6.92528 6.55699 7.14613C6.09289 7.40219 5.83683 7.17494 5.79522 7.10772" fill="black"/>
</svg>
