<svg width="348" height="47" viewBox="0 0 348 47" fill="none" xmlns="http://www.w3.org/2000/svg">
<path d="M208.196 38.909C208.16 38.7481 208.139 38.4824 208.139 38.1117C208.139 37.741 208.16 37.4752 208.196 37.3144C208.232 37.1535 208.275 37.0766 208.31 37.0766H208.91C209.595 37.0766 210.187 36.8108 210.694 36.2792C211.201 35.7477 211.451 35.0693 211.451 34.251V17.661C211.451 17.5491 211.829 17.4932 212.593 17.4932C213.357 17.4932 213.735 17.5491 213.735 17.661V34.3349C213.735 35.7547 213.307 36.9017 212.45 37.776C211.594 38.6502 210.473 39.1118 209.081 39.1468H208.31C208.267 39.1468 208.232 39.0699 208.196 38.909Z" fill="white"/>
<path d="M218.11 34.9509C217.932 34.9159 217.839 34.874 217.839 34.839L224.862 17.6056C224.919 17.4937 225.298 17.4377 226.004 17.4377C226.711 17.4377 227.089 17.4937 227.146 17.6056L234.17 34.839C234.17 34.874 234.077 34.9159 233.884 34.9509C233.691 34.9859 233.399 35.0068 232.999 35.0068C232.599 35.0068 232.3 34.9859 232.1 34.9509C231.9 34.9159 231.793 34.874 231.771 34.839L230.601 31.9015H221.293L220.123 34.839C220.101 34.874 220.002 34.9159 219.809 34.9509C219.616 34.9859 219.331 35.0068 218.952 35.0068C218.574 35.0068 218.296 34.9859 218.11 34.9509ZM222.093 29.8872H229.83L225.976 20.1235L222.093 29.8872ZM222.65 14.766C222.371 14.4583 222.236 14.1086 222.236 13.7169C222.236 13.3462 222.386 13.0245 222.678 12.7657C222.971 12.5069 223.342 12.374 223.777 12.374C224.177 12.374 224.512 12.4929 224.791 12.7237C225.069 12.9545 225.205 13.2693 225.205 13.6609C225.205 14.0876 225.055 14.4583 224.748 14.766C224.441 15.0737 224.07 15.2276 223.635 15.2276C223.256 15.2276 222.928 15.0737 222.65 14.766ZM227.289 14.78C227.004 14.4792 226.861 14.1295 226.861 13.7169C226.861 13.3252 227.004 13.0035 227.289 12.7517C227.575 12.4999 227.946 12.374 228.402 12.374C228.824 12.374 229.159 12.4929 229.416 12.7377C229.673 12.9825 229.801 13.2902 229.801 13.6609C229.801 14.0876 229.659 14.4583 229.373 14.766C229.088 15.0737 228.724 15.2276 228.288 15.2276C227.91 15.2276 227.575 15.0807 227.289 14.78Z" fill="white"/>
<path d="M237.581 34.9508C237.403 34.9158 237.31 34.8739 237.31 34.8389L240.451 17.5775C240.508 17.4656 240.879 17.4097 241.564 17.4097C242.249 17.4097 242.62 17.4656 242.678 17.5775L247.645 31.6216L252.584 17.5775C252.642 17.4656 253.013 17.4097 253.698 17.4097C254.362 17.4097 254.726 17.4656 254.783 17.5775L257.98 34.8389C257.98 34.8739 257.888 34.9158 257.695 34.9508C257.502 34.9858 257.21 35.0067 256.81 35.0067C256.089 35.0067 255.696 34.9508 255.639 34.8389L253.355 21.1865L248.673 34.5871C248.652 34.6221 248.559 34.664 248.388 34.699C248.216 34.734 247.952 34.755 247.588 34.755C247.246 34.755 246.989 34.734 246.817 34.699C246.646 34.664 246.553 34.6221 246.532 34.5871L241.85 21.1865L239.566 34.8389C239.508 34.9508 239.13 35.0067 238.424 35.0067C238.045 35.0067 237.767 34.9858 237.581 34.9508Z" fill="white"/>
<path d="M263.234 17.661C263.234 17.5491 263.612 17.4932 264.376 17.4932C265.14 17.4932 265.518 17.5491 265.518 17.661V32.8521H272.798C272.834 32.8521 272.877 32.9291 272.912 33.0899C272.948 33.2508 272.97 33.5166 272.97 33.8873C272.97 34.258 272.948 34.5237 272.912 34.6846C272.877 34.8455 272.834 34.9224 272.798 34.9224H263.234V17.661Z" fill="white"/>
<path d="M277.595 34.8385V17.661C277.595 17.5491 277.973 17.4932 278.737 17.4932C279.5 17.4932 279.879 17.5491 279.879 17.661V34.8385C279.879 34.9504 279.5 35.0063 278.737 35.0063C277.98 35.0063 277.595 34.9504 277.595 34.8385Z" fill="white"/>
<path d="M286.217 34.8385V17.661C286.217 17.5491 286.595 17.4932 287.359 17.4932C288.123 17.4932 288.501 17.5491 288.501 17.661V24.3474L294.582 17.661C294.696 17.5491 295.16 17.4932 295.981 17.4932C296.838 17.4932 297.294 17.5491 297.351 17.661L290.414 24.9908L300.007 34.8385C299.95 34.9504 299.457 35.0063 298.522 35.0063C297.573 35.0063 297.037 34.9504 296.923 34.8385L288.501 26.0259V34.8385C288.501 34.9504 288.123 35.0063 287.359 35.0063C286.602 35.0063 286.217 34.9504 286.217 34.8385Z" fill="white"/>
<path d="M303.547 34.8385V17.661C303.547 17.5491 303.925 17.4932 304.689 17.4932C305.453 17.4932 305.831 17.5491 305.831 17.661V24.2914H315.338V17.661C315.338 17.5491 315.716 17.4932 316.48 17.4932C317.244 17.4932 317.622 17.5491 317.622 17.661V34.8385C317.622 34.9504 317.244 35.0063 316.48 35.0063C315.716 35.0063 315.338 34.9504 315.338 34.8385V26.3616H305.831V34.8385C305.831 34.9504 305.453 35.0063 304.689 35.0063C303.932 35.0063 303.547 34.9504 303.547 34.8385Z" fill="white"/>
<path d="M323.818 17.5776H333.096C333.132 17.5776 333.175 17.6546 333.211 17.8154C333.246 17.9763 333.268 18.2421 333.268 18.6128C333.268 18.9834 333.246 19.2492 333.211 19.4101C333.175 19.5709 333.132 19.6479 333.096 19.6479H326.102V24.2919H331.212C331.248 24.2919 331.291 24.3689 331.326 24.5297C331.362 24.6906 331.383 24.9564 331.383 25.3271C331.383 25.6978 331.362 25.9635 331.326 26.1244C331.291 26.2853 331.248 26.3622 331.212 26.3622H326.102V32.8527H333.382C333.418 32.8527 333.46 32.9296 333.496 33.0905C333.532 33.2514 333.553 33.5171 333.553 33.8878C333.553 34.2585 333.532 34.5243 333.496 34.6851C333.46 34.846 333.418 34.9229 333.382 34.9229H323.818V17.5776Z" fill="white"/>
<path d="M341.348 34.839V19.6479H337.151C337.115 19.6479 337.072 19.5709 337.037 19.4101C337.001 19.2492 336.979 18.9834 336.979 18.6128C336.979 18.2421 337.001 17.9763 337.037 17.8154C337.072 17.6546 337.115 17.5776 337.151 17.5776H347.829C347.864 17.5776 347.907 17.6546 347.943 17.8154C347.979 17.9763 348 18.2421 348 18.6128C348 18.9834 347.979 19.2492 347.943 19.4101C347.907 19.5709 347.864 19.6479 347.829 19.6479H343.632V34.839C343.632 34.9509 343.253 35.0069 342.49 35.0069C341.726 35.0069 341.348 34.9509 341.348 34.839Z" fill="white"/>
<path d="M0.271228 34.9512C0.0927886 34.9162 0 34.8742 0 34.8392L7.02338 17.6058C7.08048 17.4939 7.45878 17.438 8.1654 17.438C8.87202 17.438 9.25031 17.4939 9.30741 17.6058L16.3308 34.8392C16.3308 34.8742 16.238 34.9162 16.0453 34.9512C15.8526 34.9861 15.5599 35.0071 15.1602 35.0071C14.7605 35.0071 14.4607 34.9861 14.2609 34.9512C14.061 34.9162 13.954 34.8742 13.9326 34.8392L12.762 31.9017H3.45459L2.28403 34.8392C2.26261 34.8742 2.16269 34.9162 1.96997 34.9512C1.77726 34.9861 1.49176 35.0071 1.11346 35.0071C0.735171 35.0071 0.449668 34.9861 0.271228 34.9512ZM4.254 29.8874H11.9911L8.13685 20.1237L4.254 29.8874Z" fill="white"/>
<path d="M22.6121 34.1536C21.2631 33.3423 20.2068 32.2302 19.4573 30.8244C18.7079 29.4186 18.3296 27.8449 18.3296 26.1104C18.3296 24.4668 18.7507 22.97 19.5858 21.6202C20.4209 20.2703 21.5629 19.2072 22.9976 18.4449C24.4322 17.6825 26.0168 17.2979 27.7512 17.2979C28.7576 17.2979 29.7426 17.4028 30.6919 17.6196C31.6412 17.8364 32.4834 18.1371 33.2043 18.5288C33.2828 18.6197 33.2685 18.8296 33.1758 19.1443C33.083 19.459 32.9545 19.7598 32.7903 20.0395C32.6262 20.3193 32.4906 20.4592 32.3764 20.4592C31.7268 20.1584 31.0059 19.9206 30.2065 19.7318C29.4071 19.5429 28.6148 19.452 27.8368 19.452C26.5235 19.452 25.3244 19.7528 24.2395 20.3473C23.1546 20.9418 22.2981 21.7531 21.67 22.7672C21.0419 23.7814 20.7278 24.9004 20.7278 26.1104C20.7278 27.4742 20.999 28.6912 21.5415 29.7613C22.084 30.8314 22.8477 31.6777 23.8255 32.2931C24.8034 32.9086 25.9454 33.2164 27.2373 33.2164C28.7005 33.2164 29.9567 32.8457 30.9917 32.0973C32.0266 31.3489 32.6833 30.3908 32.9474 29.2157H27.3229C27.2087 29.2157 27.1516 28.88 27.1516 28.2086C27.1516 27.8379 27.1731 27.5651 27.2087 27.3973C27.2444 27.2294 27.2873 27.1455 27.3229 27.1455H34.6033C35.0815 27.1455 35.317 27.4532 35.317 28.0687C35.317 29.4326 34.9673 30.6635 34.2607 31.7756C33.5541 32.8876 32.5833 33.7619 31.3485 34.4053C30.1137 35.0488 28.729 35.3705 27.2087 35.3705C25.4957 35.3705 23.9611 34.9649 22.6121 34.1536Z" fill="white"/>
<path d="M39.999 17.5776H49.2779C49.3136 17.5776 49.3564 17.6546 49.3921 17.8154C49.4278 17.9763 49.4492 18.2421 49.4492 18.6128C49.4492 18.9834 49.4278 19.2492 49.3921 19.4101C49.3564 19.5709 49.3136 19.6479 49.2779 19.6479H42.2831V24.2919H47.3936C47.4292 24.2919 47.4721 24.3689 47.5078 24.5297C47.5434 24.6906 47.5649 24.9564 47.5649 25.3271C47.5649 25.6978 47.5434 25.9635 47.5078 26.1244C47.4721 26.2853 47.4292 26.3622 47.3936 26.3622H42.2831V32.8527H49.5634C49.5991 32.8527 49.6419 32.9296 49.6776 33.0905C49.7133 33.2514 49.7347 33.5171 49.7347 33.8878C49.7347 34.2585 49.7133 34.5243 49.6776 34.6851C49.6419 34.846 49.5991 34.9229 49.5634 34.9229H39.999V17.5776Z" fill="white"/>
<path d="M54.8738 34.8389V17.6615C54.8738 17.6265 54.9666 17.5846 55.145 17.5496C55.3235 17.5146 55.5947 17.4937 55.9587 17.4937C56.6439 17.4937 57.0151 17.5496 57.0722 17.6615L67.3788 31.258V17.6615C67.3788 17.5496 67.7571 17.4937 68.5209 17.4937C69.2846 17.4937 69.6629 17.5496 69.6629 17.6615V34.8389C69.6629 34.8739 69.5701 34.9159 69.3916 34.9508C69.2132 34.9858 68.942 35.0068 68.578 35.0068C67.8927 35.0068 67.5216 34.9508 67.4645 34.8389L57.1578 21.2704V34.8389C57.1578 34.9508 56.7795 35.0068 56.0158 35.0068C55.2521 35.0068 54.8738 34.9508 54.8738 34.8389Z" fill="white"/>
<path d="M75.7725 17.5776H80.5118C82.5318 17.5776 84.2733 17.9413 85.7365 18.6687C87.1997 19.3961 88.3132 20.4032 89.0769 21.6902C89.8406 22.9771 90.2189 24.4528 90.2189 26.1104C90.2189 27.8449 89.8549 29.3766 89.1197 30.6985C88.3846 32.0204 87.2782 33.0555 85.7936 33.8039C84.309 34.5522 82.4818 34.9229 80.312 34.9229H75.7725V17.5776ZM80.4262 32.8527C82.9029 32.8527 84.7515 32.2302 85.9792 30.9783C87.2069 29.7263 87.8207 28.1037 87.8207 26.1104C87.8207 24.173 87.1997 22.6064 85.9507 21.4244C84.7016 20.2424 82.8601 19.6479 80.4262 19.6479H78.0565V32.8527H80.4262Z" fill="white"/>
<path d="M93.0312 34.9512C92.8528 34.9162 92.76 34.8742 92.76 34.8392L99.7834 17.6058C99.8405 17.4939 100.219 17.438 100.925 17.438C101.632 17.438 102.01 17.4939 102.067 17.6058L109.091 34.8392C109.091 34.8742 108.998 34.9162 108.805 34.9512C108.613 34.9861 108.32 35.0071 107.92 35.0071C107.521 35.0071 107.221 34.9861 107.021 34.9512C106.821 34.9162 106.714 34.8742 106.693 34.8392L105.522 31.9017H96.2146L95.044 34.8392C95.0226 34.8742 94.9227 34.9162 94.73 34.9512C94.5373 34.9861 94.2518 35.0071 93.8735 35.0071C93.488 35.0071 93.2097 34.9861 93.0312 34.9512ZM97.014 29.8874H104.751L100.897 20.1237L97.014 29.8874Z" fill="white"/>
<path d="M113.102 26.6419C112.752 26.2852 112.574 25.8795 112.574 25.4109C112.574 24.9423 112.745 24.5646 113.088 24.2779C113.43 23.9911 113.837 23.8442 114.316 23.8442C114.808 23.8442 115.215 23.9841 115.529 24.2639C115.843 24.5436 116 24.9073 116 25.355C116 25.8585 115.836 26.2852 115.515 26.6419C115.193 26.9986 114.779 27.1734 114.287 27.1734C113.844 27.1734 113.452 26.9986 113.102 26.6419ZM113.131 34.6711C112.795 34.3144 112.631 33.9157 112.631 33.4681C112.631 33.0414 112.802 32.6778 113.145 32.377C113.488 32.0763 113.887 31.9294 114.344 31.9294C114.837 31.9294 115.251 32.0623 115.572 32.335C115.893 32.6078 116.057 32.9645 116.057 33.4121C116.057 33.9157 115.893 34.3423 115.557 34.685C115.222 35.0278 114.801 35.2026 114.287 35.2026C113.844 35.2026 113.459 35.0278 113.131 34.6711Z" fill="white"/>
<path d="M185.663 40.3857C175.692 43.2183 172.051 43.6099 166.434 42.7916C162.701 42.2461 153.622 38.2874 151.931 33.2937C150.239 28.2929 146.456 21.3688 151.174 14.4586C155.899 7.54848 161.138 -0.138 168.982 0.00188127C176.826 0.141763 183.1 0.505454 190.402 6.01678C195.605 9.94046 201.051 22.8235 198.104 28.8105C195.156 34.7974 191.758 38.6581 185.663 40.3857Z" fill="#00CCCC"/>
<g style="mix-blend-mode:multiply">
<path d="M152.609 16.4171C148.29 14.2349 144.607 10.7519 140.232 12.4375C135.857 14.116 127.748 19.3546 127.035 22.8936C126.314 26.4326 129.262 31.4753 130.611 33.8463C131.96 36.2173 138.105 42.9316 143.751 45.0019C149.397 47.0651 156.149 45.6943 161.288 43.1135C166.427 40.5327 174.071 36.4341 173.036 30.72C172.001 25.0058 168.418 23.0894 163.137 20.7394C157.855 18.3894 158.326 19.3126 152.609 16.4171Z" fill="#660099"/>
</g>
</svg>
